<svg xmlns="http://www.w3.org/2000/svg" viewBox="0 0 200 200"><defs><style>.a{fill:#aa7f12;}</style></defs><path class="a" d="M76.42,107.84c-2.43-1.12-5.84-1.68-10.21-1.73H44.27v27.26H65.86c4.44,0,7.87-.59,10.36-1.8,4.46-2.22,6.71-6.47,6.71-12.77C82.93,113.49,80.76,109.82,76.42,107.84Z"/><path class="a" d="M76.7,86.66q4.14-2.53,4.13-9c0-4.76-1.81-7.91-5.48-9.43a38.8,38.8,0,0,0-12.06-1.59h-19V89.2H65.89Q72.55,89.19,76.7,86.66Z"/><path class="a" d="M143,88.54c-4.92,0-8.73,1.42-11.43,4.19s-4.4,6.57-5.1,11.34h33c-.38-5.07-2.07-8.93-5.13-11.56A16.59,16.59,0,0,0,143,88.54Z"/><path class="a" d="M0,0V200H200V0ZM122.25,53.13h41.16V63.36H122.25ZM99.92,136.57a28.36,28.36,0,0,1-7.24,8,27.82,27.82,0,0,1-11.53,5.13,70.39,70.39,0,0,1-14.42,1.38H20.68V48.9H70.06c12.43.19,21.26,3.79,26.47,10.89a26,26,0,0,1,4.67,15.59c0,6.27-1.57,11.26-4.73,15.06a23.68,23.68,0,0,1-7.78,5.81,22.74,22.74,0,0,1,11.78,9,27,27,0,0,1,4,15A29.69,29.69,0,0,1,99.92,136.57Zm79.39-19.86H126c.3,7.36,2.83,12.5,7.66,15.46a19.29,19.29,0,0,0,10.55,2.74c4.36,0,7.88-1.1,10.62-3.35a15.79,15.79,0,0,0,3.92-5h19.55c-.51,4.35-2.86,8.75-7.1,13.24q-9.81,10.66-27.53,10.69a40,40,0,0,1-25.8-9q-11.14-9-11.17-29.33,0-19,10.08-29.19T143,72.78a42.09,42.09,0,0,1,17.23,3.41A29.72,29.72,0,0,1,172.81,87a36,36,0,0,1,5.85,15.16A92.34,92.34,0,0,1,179.31,116.71Z"/></svg>