<svg width="200" height="200" viewBox="0 0 200 200" fill="none" xmlns="http://www.w3.org/2000/svg">
<path d="M77.1424 51.9048C62.2218 58.8889 51.2694 72.5397 47.7773 89.0476C49.2059 89.0476 71.4281 89.3651 96.9837 82.5397C87.7773 66.1905 77.9361 52.8572 77.1424 51.9048Z" fill="#AA7F12"/>
<path d="M101.429 90.7935C73.9686 99.0474 47.6194 98.4125 46.667 98.4125C46.667 98.8887 46.667 99.5236 46.667 100.159C46.667 113.809 51.9051 126.349 60.3178 135.714C60.3178 135.714 74.921 109.682 103.651 100.476C104.286 100.317 105.08 99.9998 105.715 99.8411C104.445 96.8252 102.857 93.8093 101.429 90.7935Z" fill="#AA7F12"/>
<path d="M99.9996 46.6665C95.7139 46.6665 91.4282 47.1427 87.46 48.0951C88.2536 49.2062 98.2536 62.3808 107.46 79.2062C127.46 71.7459 135.079 60.1586 135.238 59.9998C125.873 51.7459 113.492 46.6665 99.9996 46.6665Z" fill="#AA7F12"/>
<path d="M119.365 106.19C126.349 125.397 129.207 140.952 129.683 144.286C141.587 136.19 150.159 123.333 152.54 108.571C151.587 108.095 136.667 103.333 119.365 106.19Z" fill="#AA7F12"/>
<path d="M149.841 0H0C0 0 0 22.5397 0 50.1587V200C0 200 22.5397 200 50 200H200C200 200 200 177.46 200 149.841V0C200 0 177.46 0 149.841 0ZM161.111 112.54C160.317 116.508 159.048 120.476 157.46 124.286C155.873 127.937 153.968 131.587 151.746 134.921C149.524 138.254 146.984 141.27 144.127 144.127C141.27 146.984 138.254 149.524 134.921 151.746C131.587 153.968 128.095 155.873 124.286 157.46C120.476 159.048 116.508 160.317 112.54 161.111C108.413 161.905 104.286 162.381 100 162.381C95.7143 162.381 91.5873 161.905 87.4603 161.111C83.4921 160.317 79.5238 159.048 75.7143 157.46C72.0635 155.873 68.4127 153.968 65.0794 151.746C61.746 149.524 58.7302 146.984 55.873 144.127C53.0159 141.27 50.4762 138.254 48.254 134.921C46.0317 131.587 44.127 128.095 42.5397 124.286C40.9524 120.476 39.6825 116.508 38.8889 112.54C38.0952 108.413 37.619 104.127 37.619 100C37.619 95.7143 38.0952 91.5873 38.8889 87.4603C39.6825 83.4921 40.9524 79.5238 42.5397 75.7143C44.127 72.0635 46.0317 68.4127 48.254 65.0794C50.4762 61.746 53.0159 58.7302 55.873 55.873C58.7302 53.0159 61.746 50.4762 65.0794 48.254C68.4127 46.0317 71.9048 44.127 75.7143 42.5397C79.5238 40.9524 83.4921 39.6825 87.4603 38.8889C91.5873 38.0952 95.873 37.619 100 37.619C104.286 37.619 108.413 38.0952 112.54 38.8889C116.508 39.6825 120.476 40.9524 124.286 42.5397C127.937 44.127 131.587 46.0317 134.921 48.254C138.254 50.4762 141.27 53.0159 144.127 55.873C146.984 58.7302 149.524 61.746 151.746 65.0794C153.968 68.4127 155.873 71.9048 157.46 75.7143C159.048 79.5238 160.317 83.4921 161.111 87.4603C161.905 91.5873 162.381 95.7143 162.381 100C162.381 104.286 161.905 108.413 161.111 112.54Z" fill="#AA7F12"/>
<path d="M109.365 108.571C109.365 108.571 109.207 108.73 109.048 108.73C77.6192 119.682 67.3018 141.746 67.3018 142.063C76.3494 149.047 87.6192 153.333 100 153.333C107.302 153.333 114.445 151.746 120.794 149.047C120 144.444 116.984 128.095 109.365 108.571Z" fill="#AA7F12"/>
<path d="M141.111 66.1904C141.111 66.3492 132.54 78.7301 111.429 87.3015C112.699 89.8412 113.81 92.3809 114.921 95.0793C115.238 96.0317 115.714 96.9841 116.032 97.7777C134.286 95.3968 152.381 99.365 153.175 99.5238C153.016 86.8253 148.572 75.238 141.111 66.1904Z" fill="#AA7F12"/>
</svg>
