<svg xmlns="http://www.w3.org/2000/svg" viewBox="0 0 200 200"><defs><style>.a{fill:#aa7f12;}</style></defs><path class="a" d="M100,80.11A19.89,19.89,0,1,0,119.89,100,19.92,19.92,0,0,0,100,80.11Zm0,0A19.89,19.89,0,1,0,119.89,100,19.92,19.92,0,0,0,100,80.11Zm33.13-32.42H66.87A19.2,19.2,0,0,0,47.69,66.87v66.26a19.2,19.2,0,0,0,19.18,19.18h66.26a19.2,19.2,0,0,0,19.18-19.18V66.87A19.2,19.2,0,0,0,133.13,47.69ZM100,134.44A34.44,34.44,0,1,1,134.44,100,34.48,34.48,0,0,1,100,134.44Zm35.55-61.76a8.15,8.15,0,1,1,8.15-8.15A8.16,8.16,0,0,1,135.55,72.68ZM100,80.11A19.89,19.89,0,1,0,119.89,100,19.92,19.92,0,0,0,100,80.11Zm33.13-32.42H66.87A19.2,19.2,0,0,0,47.69,66.87v66.26a19.2,19.2,0,0,0,19.18,19.18h66.26a19.2,19.2,0,0,0,19.18-19.18V66.87A19.2,19.2,0,0,0,133.13,47.69ZM100,134.44A34.44,34.44,0,1,1,134.44,100,34.48,34.48,0,0,1,100,134.44Zm35.55-61.76a8.15,8.15,0,1,1,8.15-8.15A8.16,8.16,0,0,1,135.55,72.68ZM100,80.11A19.89,19.89,0,1,0,119.89,100,19.92,19.92,0,0,0,100,80.11ZM0,0V200H200V0ZM166.87,133.13a33.77,33.77,0,0,1-33.74,33.74H66.87a33.78,33.78,0,0,1-33.74-33.74V66.87A33.78,33.78,0,0,1,66.87,33.13h66.26a33.78,33.78,0,0,1,33.74,33.74ZM133.13,47.69H66.87A19.2,19.2,0,0,0,47.69,66.87v66.26a19.2,19.2,0,0,0,19.18,19.18h66.26a19.2,19.2,0,0,0,19.18-19.18V66.87A19.2,19.2,0,0,0,133.13,47.69ZM100,134.44A34.44,34.44,0,1,1,134.44,100,34.48,34.48,0,0,1,100,134.44Zm35.55-61.76a8.15,8.15,0,1,1,8.15-8.15A8.16,8.16,0,0,1,135.55,72.68ZM100,80.11A19.89,19.89,0,1,0,119.89,100,19.92,19.92,0,0,0,100,80.11Zm0,0A19.89,19.89,0,1,0,119.89,100,19.92,19.92,0,0,0,100,80.11Zm0,0A19.89,19.89,0,1,0,119.89,100,19.92,19.92,0,0,0,100,80.11Zm33.13-32.42H66.87A19.2,19.2,0,0,0,47.69,66.87v66.26a19.2,19.2,0,0,0,19.18,19.18h66.26a19.2,19.2,0,0,0,19.18-19.18V66.87A19.2,19.2,0,0,0,133.13,47.69ZM100,134.44A34.44,34.44,0,1,1,134.44,100,34.48,34.48,0,0,1,100,134.44Zm35.55-61.76a8.15,8.15,0,1,1,8.15-8.15A8.16,8.16,0,0,1,135.55,72.68ZM100,80.11A19.89,19.89,0,1,0,119.89,100,19.92,19.92,0,0,0,100,80.11Zm0,0A19.89,19.89,0,1,0,119.89,100,19.92,19.92,0,0,0,100,80.11Zm0,0A19.89,19.89,0,1,0,119.89,100,19.92,19.92,0,0,0,100,80.11Zm33.13-32.42H66.87A19.2,19.2,0,0,0,47.69,66.87v66.26a19.2,19.2,0,0,0,19.18,19.18h66.26a19.2,19.2,0,0,0,19.18-19.18V66.87A19.2,19.2,0,0,0,133.13,47.69ZM100,134.44A34.44,34.44,0,1,1,134.44,100,34.48,34.48,0,0,1,100,134.44Zm35.55-61.76a8.15,8.15,0,1,1,8.15-8.15A8.16,8.16,0,0,1,135.55,72.68ZM100,80.11A19.89,19.89,0,1,0,119.89,100,19.92,19.92,0,0,0,100,80.11Z"/></svg>