<svg width="200" height="200" viewBox="0 0 200 200" fill="none" xmlns="http://www.w3.org/2000/svg">
<path fill-rule="evenodd" clip-rule="evenodd" d="M0 0V200H200V0H0ZM62.2075 166.155H32.5345V76.8818H62.2075V166.155ZM47.371 64.6971H47.1749C37.2211 64.6971 30.7692 57.8396 30.7692 49.2681C30.7692 40.5086 37.4097 33.8453 47.5653 33.8453C57.7231 33.8453 63.9653 40.5086 64.1596 49.2681C64.1596 57.8396 57.7231 64.6971 47.371 64.6971ZM169.231 166.155H139.55V118.393C139.55 106.397 135.262 98.2088 124.519 98.2088C116.315 98.2088 111.44 103.722 109.292 109.063C108.512 110.971 108.308 113.622 108.308 116.298V166.155H78.6211C78.6211 166.155 79.0189 85.2571 78.6211 76.8822H108.308V89.5323C112.252 83.4633 119.291 74.7864 135.058 74.7864C154.59 74.7864 169.231 87.5424 169.231 114.961V166.155Z" fill="#AA7F12"/>
</svg>
