<svg width="200" height="200" viewBox="0 0 200 200" fill="none" xmlns="http://www.w3.org/2000/svg">
<path fill-rule="evenodd" clip-rule="evenodd" d="M0 0V200H200V0H0ZM155.055 71.7622C155.109 72.9811 155.137 74.2066 155.137 75.4369C155.137 112.977 126.565 156.262 74.3138 156.262C58.2716 156.262 43.3398 151.56 30.7688 143.498C32.9912 143.762 35.2519 143.897 37.5455 143.897C50.8545 143.897 63.1029 139.356 72.8255 131.735C60.3947 131.507 49.9033 123.294 46.2879 112.007C48.0233 112.34 49.8031 112.519 51.6334 112.519C54.2242 112.519 56.7341 112.17 59.1178 111.522C46.1231 108.911 36.3306 97.4308 36.3306 83.6677C36.3306 83.5477 36.3305 83.4286 36.3332 83.3099C40.1626 85.4374 44.5424 86.7156 49.1996 86.8633C41.5767 81.7692 36.5631 73.0739 36.5631 63.2193C36.5631 58.0127 37.964 53.1336 40.4097 48.9371C54.4198 66.1244 75.3516 77.433 98.9604 78.6189C98.4756 76.5389 98.2233 74.3706 98.2233 72.1446C98.2233 56.4576 110.943 43.7389 126.63 43.7389C134.801 43.7389 142.184 47.1881 147.366 52.7086C153.836 51.436 159.916 49.0708 165.404 45.8158C163.284 52.4497 158.78 58.0154 152.914 61.5319C158.661 60.8448 164.135 59.3174 169.23 57.058C165.422 62.7543 160.607 67.7578 155.055 71.7622Z" fill="#AA7F12"/>
</svg>
